<mxfile host="Electron" agent="Mozilla/5.0 (X11; Linux x86_64) AppleWebKit/537.36 (KHTML, like Gecko) draw.io/26.1.1 Chrome/132.0.6834.210 Electron/34.3.3 Safari/537.36" version="26.1.1">
  <diagram name="Page-1" id="nnvEIHW3Z4vWF1LjfkwZ">
    <mxGraphModel dx="969" dy="706" grid="1" gridSize="10" guides="1" tooltips="1" connect="1" arrows="1" fold="1" page="1" pageScale="1" pageWidth="850" pageHeight="1100" math="0" shadow="0">
      <root>
        <mxCell id="0" />
        <mxCell id="1" parent="0" />
        <mxCell id="NkV01MRkD-zcOsepxfJR-2" value="" style="rounded=0;whiteSpace=wrap;html=1;fillColor=light-dark(#D4E1F5,var(--ge-dark-color, #121212));" parent="1" vertex="1">
          <mxGeometry x="20" y="400" width="810" height="310" as="geometry" />
        </mxCell>
        <mxCell id="M6tyFE9a1OWHZ1wvqODp-3" style="edgeStyle=orthogonalEdgeStyle;rounded=0;orthogonalLoop=1;jettySize=auto;html=1;exitX=0;exitY=0.25;exitDx=0;exitDy=0;" parent="1" source="CPMZ2iNUAcUxmmoOPrO8-6" target="M6tyFE9a1OWHZ1wvqODp-2" edge="1">
          <mxGeometry relative="1" as="geometry" />
        </mxCell>
        <mxCell id="CPMZ2iNUAcUxmmoOPrO8-6" value="" style="rounded=0;whiteSpace=wrap;html=1;fillColor=light-dark(#99FF99,var(--ge-dark-color, #121212));" parent="1" vertex="1">
          <mxGeometry x="350" y="440" width="190" height="120" as="geometry" />
        </mxCell>
        <mxCell id="NkV01MRkD-zcOsepxfJR-1" value="" style="rounded=0;whiteSpace=wrap;html=1;fillColor=light-dark(#D4E1F5,var(--ge-dark-color, #121212));" parent="1" vertex="1">
          <mxGeometry x="20" y="60" width="810" height="310" as="geometry" />
        </mxCell>
        <mxCell id="LCy0PVrk5LSCn90gnhkb-2" style="edgeStyle=orthogonalEdgeStyle;rounded=0;orthogonalLoop=1;jettySize=auto;html=1;exitX=0.25;exitY=1;exitDx=0;exitDy=0;entryX=1.008;entryY=0.309;entryDx=0;entryDy=0;entryPerimeter=0;" parent="1" source="M6tyFE9a1OWHZ1wvqODp-2" target="_sJffcc7cZwXCYkYl67q-33" edge="1">
          <mxGeometry relative="1" as="geometry">
            <mxPoint x="180" y="614" as="targetPoint" />
          </mxGeometry>
        </mxCell>
        <mxCell id="FR4YwdjWuDr9_sK9Jnh4-16" value="C2P" style="rounded=0;whiteSpace=wrap;html=1;fillColor=#008a00;fillStyle=auto;fontColor=#ffffff;strokeColor=#005700;" parent="1" vertex="1">
          <mxGeometry x="350" y="560" width="190" height="20" as="geometry" />
        </mxCell>
        <mxCell id="_sJffcc7cZwXCYkYl67q-33" value="" style="whiteSpace=wrap;html=1;dashed=1;fillColor=light-dark(#FFF2CC,var(--ge-dark-color, #121212));" parent="1" vertex="1">
          <mxGeometry x="40" y="572.5" width="120" height="115" as="geometry" />
        </mxCell>
        <mxCell id="_sJffcc7cZwXCYkYl67q-14" style="edgeStyle=orthogonalEdgeStyle;rounded=0;orthogonalLoop=1;jettySize=auto;html=1;exitX=1;exitY=0.5;exitDx=0;exitDy=0;entryX=0;entryY=0.5;entryDx=0;entryDy=0;" parent="1" source="_sJffcc7cZwXCYkYl67q-1" target="_sJffcc7cZwXCYkYl67q-3" edge="1">
          <mxGeometry relative="1" as="geometry" />
        </mxCell>
        <mxCell id="_sJffcc7cZwXCYkYl67q-1" value="NIST 800-53&lt;div&gt;Controls Catalog&lt;/div&gt;" style="whiteSpace=wrap;html=1;aspect=fixed;fillColor=light-dark(#66B2FF,var(--ge-dark-color, #121212));" parent="1" vertex="1">
          <mxGeometry x="50" y="120" width="80" height="80" as="geometry" />
        </mxCell>
        <mxCell id="NkV01MRkD-zcOsepxfJR-4" style="edgeStyle=orthogonalEdgeStyle;rounded=0;orthogonalLoop=1;jettySize=auto;html=1;exitX=1;exitY=0.5;exitDx=0;exitDy=0;entryX=0;entryY=0.5;entryDx=0;entryDy=0;" parent="1" source="_sJffcc7cZwXCYkYl67q-3" target="_sJffcc7cZwXCYkYl67q-8" edge="1">
          <mxGeometry relative="1" as="geometry" />
        </mxCell>
        <mxCell id="NkV01MRkD-zcOsepxfJR-5" style="edgeStyle=orthogonalEdgeStyle;rounded=0;orthogonalLoop=1;jettySize=auto;html=1;exitX=1;exitY=0.5;exitDx=0;exitDy=0;entryX=0.5;entryY=0;entryDx=0;entryDy=0;" parent="1" source="_sJffcc7cZwXCYkYl67q-3" target="_sJffcc7cZwXCYkYl67q-6" edge="1">
          <mxGeometry relative="1" as="geometry" />
        </mxCell>
        <mxCell id="_sJffcc7cZwXCYkYl67q-3" value="NIST 800-53&lt;div&gt;Profile (selected controls)&lt;/div&gt;" style="whiteSpace=wrap;html=1;aspect=fixed;fillColor=light-dark(#66B2FF,var(--ge-dark-color, #121212));" parent="1" vertex="1">
          <mxGeometry x="220" y="120" width="80" height="80" as="geometry" />
        </mxCell>
        <mxCell id="_sJffcc7cZwXCYkYl67q-4" value="Git Repo" style="text;html=1;align=left;verticalAlign=middle;whiteSpace=wrap;rounded=0;" parent="1" vertex="1">
          <mxGeometry x="30" y="90" width="60" height="30" as="geometry" />
        </mxCell>
        <mxCell id="_sJffcc7cZwXCYkYl67q-5" value="Git Repo" style="text;html=1;align=left;verticalAlign=middle;whiteSpace=wrap;rounded=0;" parent="1" vertex="1">
          <mxGeometry x="210" y="90" width="60" height="30" as="geometry" />
        </mxCell>
        <mxCell id="CPMZ2iNUAcUxmmoOPrO8-13" style="edgeStyle=orthogonalEdgeStyle;rounded=0;orthogonalLoop=1;jettySize=auto;html=1;exitX=0.5;exitY=1;exitDx=0;exitDy=0;entryX=0.5;entryY=1;entryDx=0;entryDy=0;" parent="1" source="_sJffcc7cZwXCYkYl67q-6" target="_sJffcc7cZwXCYkYl67q-8" edge="1">
          <mxGeometry relative="1" as="geometry" />
        </mxCell>
        <mxCell id="LCy0PVrk5LSCn90gnhkb-12" style="edgeStyle=orthogonalEdgeStyle;rounded=0;orthogonalLoop=1;jettySize=auto;html=1;exitX=0.5;exitY=1;exitDx=0;exitDy=0;" parent="1" source="_sJffcc7cZwXCYkYl67q-6" target="CPMZ2iNUAcUxmmoOPrO8-6" edge="1">
          <mxGeometry relative="1" as="geometry">
            <Array as="points">
              <mxPoint x="390" y="310" />
              <mxPoint x="445" y="310" />
            </Array>
          </mxGeometry>
        </mxCell>
        <mxCell id="_sJffcc7cZwXCYkYl67q-6" value="Ubuntu Component Definition" style="whiteSpace=wrap;html=1;aspect=fixed;fillColor=light-dark(#FFCCFF,var(--ge-dark-color, #121212));" parent="1" vertex="1">
          <mxGeometry x="350" y="210" width="80" height="80" as="geometry" />
        </mxCell>
        <mxCell id="_sJffcc7cZwXCYkYl67q-8" value="Ubuntu&lt;div&gt;SSP&lt;/div&gt;" style="whiteSpace=wrap;html=1;aspect=fixed;fillColor=light-dark(#FFCCFF,var(--ge-dark-color, #121212));" parent="1" vertex="1">
          <mxGeometry x="535" y="120" width="80" height="80" as="geometry" />
        </mxCell>
        <mxCell id="_sJffcc7cZwXCYkYl67q-9" value="Git Repo" style="text;html=1;align=left;verticalAlign=middle;whiteSpace=wrap;rounded=0;" parent="1" vertex="1">
          <mxGeometry x="520" y="90" width="60" height="30" as="geometry" />
        </mxCell>
        <mxCell id="_sJffcc7cZwXCYkYl67q-22" value="" style="image;html=1;image=img/lib/clip_art/computers/Secure_System_128x128.png" parent="1" vertex="1">
          <mxGeometry x="60" y="590" width="80" height="80" as="geometry" />
        </mxCell>
        <mxCell id="_sJffcc7cZwXCYkYl67q-25" value="Secure Server" style="text;html=1;align=left;verticalAlign=middle;whiteSpace=wrap;rounded=0;" parent="1" vertex="1">
          <mxGeometry x="165" y="640" width="90" height="30" as="geometry" />
        </mxCell>
        <mxCell id="_sJffcc7cZwXCYkYl67q-26" value="(subject of audit)" style="text;html=1;align=left;verticalAlign=middle;whiteSpace=wrap;rounded=0;" parent="1" vertex="1">
          <mxGeometry x="160" y="657.5" width="110" height="30" as="geometry" />
        </mxCell>
        <mxCell id="_sJffcc7cZwXCYkYl67q-34" value="End-to-End Demo - CNCF OSCAL Compass" style="text;html=1;align=center;verticalAlign=middle;whiteSpace=wrap;rounded=0;fontStyle=1;fontSize=21;" parent="1" vertex="1">
          <mxGeometry x="40" y="10" width="480" height="30" as="geometry" />
        </mxCell>
        <mxCell id="FR4YwdjWuDr9_sK9Jnh4-12" value="Assessment Results:&lt;div&gt;observations only&lt;/div&gt;" style="text;html=1;align=left;verticalAlign=middle;whiteSpace=wrap;rounded=0;" parent="1" vertex="1">
          <mxGeometry x="480" y="640" width="140" height="30" as="geometry" />
        </mxCell>
        <mxCell id="LCy0PVrk5LSCn90gnhkb-15" style="edgeStyle=orthogonalEdgeStyle;rounded=0;orthogonalLoop=1;jettySize=auto;html=1;exitX=0.75;exitY=1;exitDx=0;exitDy=0;dashed=1;" parent="1" source="M6tyFE9a1OWHZ1wvqODp-2" target="LCy0PVrk5LSCn90gnhkb-8" edge="1">
          <mxGeometry relative="1" as="geometry">
            <Array as="points">
              <mxPoint x="280" y="510" />
              <mxPoint x="280" y="630" />
            </Array>
          </mxGeometry>
        </mxCell>
        <mxCell id="FR4YwdjWuDr9_sK9Jnh4-15" value="Pipeline to:&lt;div&gt;&amp;nbsp; - push policies&lt;/div&gt;&lt;div&gt;&amp;nbsp; - pull results&lt;/div&gt;&lt;div&gt;&amp;nbsp; - store evidence&lt;/div&gt;&lt;div&gt;&amp;nbsp; - calculate compliance posture&lt;/div&gt;" style="text;html=1;align=left;verticalAlign=middle;whiteSpace=wrap;rounded=0;" parent="1" vertex="1">
          <mxGeometry x="355" y="470" width="180" height="80" as="geometry" />
        </mxCell>
        <mxCell id="HgmPG7ZFx5860i2Mmg5O-22" value="Catalog:&lt;div&gt;all controls&lt;/div&gt;" style="text;html=1;align=left;verticalAlign=middle;whiteSpace=wrap;rounded=0;" parent="1" vertex="1">
          <mxGeometry x="150" y="130" width="120" height="30" as="geometry" />
        </mxCell>
        <mxCell id="HgmPG7ZFx5860i2Mmg5O-23" value="Git Repo" style="text;html=1;align=left;verticalAlign=middle;whiteSpace=wrap;rounded=0;" parent="1" vertex="1">
          <mxGeometry x="330" y="180" width="60" height="30" as="geometry" />
        </mxCell>
        <mxCell id="HgmPG7ZFx5860i2Mmg5O-24" value="Resolved Profile:&lt;div&gt;selected controls only&lt;/div&gt;" style="text;html=1;align=left;verticalAlign=middle;whiteSpace=wrap;rounded=0;" parent="1" vertex="1">
          <mxGeometry x="325" y="130" width="120" height="30" as="geometry" />
        </mxCell>
        <mxCell id="HgmPG7ZFx5860i2Mmg5O-31" value="Compliance Posture" style="text;html=1;align=center;verticalAlign=middle;whiteSpace=wrap;rounded=0;" parent="1" vertex="1">
          <mxGeometry x="375" y="440" width="140" height="30" as="geometry" />
        </mxCell>
        <mxCell id="LCy0PVrk5LSCn90gnhkb-13" style="edgeStyle=orthogonalEdgeStyle;rounded=0;orthogonalLoop=1;jettySize=auto;html=1;exitX=0.5;exitY=1;exitDx=0;exitDy=0;dashed=1;entryX=1;entryY=0.25;entryDx=0;entryDy=0;" parent="1" source="Dz6giT6QmdXinou7oSLN-5" target="CPMZ2iNUAcUxmmoOPrO8-6" edge="1">
          <mxGeometry relative="1" as="geometry">
            <mxPoint x="570" y="760" as="targetPoint" />
          </mxGeometry>
        </mxCell>
        <mxCell id="Dz6giT6QmdXinou7oSLN-5" value="NIST 800-53 to other compliance program(s)" style="whiteSpace=wrap;html=1;aspect=fixed;fillColor=light-dark(#CC99FF,var(--ge-dark-color, #121212));" parent="1" vertex="1">
          <mxGeometry x="680" y="150" width="80" height="80" as="geometry" />
        </mxCell>
        <mxCell id="NkV01MRkD-zcOsepxfJR-13" value="Git Repo" style="text;html=1;align=left;verticalAlign=middle;whiteSpace=wrap;rounded=0;" parent="1" vertex="1">
          <mxGeometry x="660" y="120" width="60" height="30" as="geometry" />
        </mxCell>
        <mxCell id="NkV01MRkD-zcOsepxfJR-20" value="Future: results re-usability for other compliance programs" style="text;html=1;align=left;verticalAlign=middle;whiteSpace=wrap;rounded=0;" parent="1" vertex="1">
          <mxGeometry x="640" y="80" width="160" height="30" as="geometry" />
        </mxCell>
        <mxCell id="NkV01MRkD-zcOsepxfJR-23" value="Policy as Code" style="text;html=1;align=center;verticalAlign=middle;whiteSpace=wrap;rounded=0;fontStyle=1" parent="1" vertex="1">
          <mxGeometry x="35" y="410" width="50" height="30" as="geometry" />
        </mxCell>
        <mxCell id="NkV01MRkD-zcOsepxfJR-24" value="Compliance as Code" style="text;html=1;align=center;verticalAlign=middle;whiteSpace=wrap;rounded=0;fontStyle=1" parent="1" vertex="1">
          <mxGeometry x="40" y="330" width="60" height="30" as="geometry" />
        </mxCell>
        <mxCell id="NkV01MRkD-zcOsepxfJR-17" value="" style="whiteSpace=wrap;html=1;dashed=1;fillColor=#bac8d3;glass=1;opacity=50;strokeColor=#23445d;" parent="1" vertex="1">
          <mxGeometry x="655" y="120" width="130" height="130" as="geometry" />
        </mxCell>
        <mxCell id="CPMZ2iNUAcUxmmoOPrO8-2" style="edgeStyle=orthogonalEdgeStyle;rounded=0;orthogonalLoop=1;jettySize=auto;html=1;exitX=0.5;exitY=1;exitDx=0;exitDy=0;" parent="1" source="FR4YwdjWuDr9_sK9Jnh4-16" target="FR4YwdjWuDr9_sK9Jnh4-16" edge="1">
          <mxGeometry relative="1" as="geometry" />
        </mxCell>
        <mxCell id="CPMZ2iNUAcUxmmoOPrO8-3" value="policies (oscap)" style="text;html=1;align=left;verticalAlign=middle;whiteSpace=wrap;rounded=0;rotation=90;" parent="1" vertex="1">
          <mxGeometry x="130" y="540" width="90" height="30" as="geometry" />
        </mxCell>
        <mxCell id="CPMZ2iNUAcUxmmoOPrO8-5" value="results (xccdf)" style="text;html=1;align=left;verticalAlign=middle;whiteSpace=wrap;rounded=0;rotation=90;" parent="1" vertex="1">
          <mxGeometry x="170" y="572.5" width="80" height="30" as="geometry" />
        </mxCell>
        <mxCell id="CPMZ2iNUAcUxmmoOPrO8-9" value="Git Repo" style="text;html=1;align=left;verticalAlign=middle;whiteSpace=wrap;rounded=0;" parent="1" vertex="1">
          <mxGeometry x="340" y="410" width="60" height="30" as="geometry" />
        </mxCell>
        <mxCell id="CPMZ2iNUAcUxmmoOPrO8-14" value="Component Definition:&lt;div&gt;technology specific&lt;/div&gt;&lt;div&gt;rules &amp;amp; checks&lt;/div&gt;" style="text;html=1;align=left;verticalAlign=middle;whiteSpace=wrap;rounded=0;" parent="1" vertex="1">
          <mxGeometry x="450" y="320" width="130" height="30" as="geometry" />
        </mxCell>
        <mxCell id="CPMZ2iNUAcUxmmoOPrO8-16" value="Mapping:&lt;div&gt;controls to&lt;/div&gt;&lt;div&gt;controls&lt;/div&gt;" style="text;html=1;align=left;verticalAlign=middle;whiteSpace=wrap;rounded=0;rotation=90;" parent="1" vertex="1">
          <mxGeometry x="680" y="310" width="140" height="30" as="geometry" />
        </mxCell>
        <mxCell id="LCy0PVrk5LSCn90gnhkb-3" style="edgeStyle=orthogonalEdgeStyle;rounded=0;orthogonalLoop=1;jettySize=auto;html=1;exitX=1;exitY=0.5;exitDx=0;exitDy=0;entryX=0.5;entryY=1;entryDx=0;entryDy=0;" parent="1" source="_sJffcc7cZwXCYkYl67q-33" target="M6tyFE9a1OWHZ1wvqODp-2" edge="1">
          <mxGeometry relative="1" as="geometry">
            <Array as="points">
              <mxPoint x="200" y="630" />
            </Array>
          </mxGeometry>
        </mxCell>
        <mxCell id="LCy0PVrk5LSCn90gnhkb-6" value="Ubuntu (VM)" style="text;html=1;align=left;verticalAlign=middle;whiteSpace=wrap;rounded=0;" parent="1" vertex="1">
          <mxGeometry x="40" y="542.5" width="120" height="30" as="geometry" />
        </mxCell>
        <mxCell id="LCy0PVrk5LSCn90gnhkb-8" value="Evidence Locker" style="whiteSpace=wrap;html=1;aspect=fixed;fillColor=#f0a30a;fontColor=#000000;strokeColor=#BD7000;" parent="1" vertex="1">
          <mxGeometry x="660" y="600" width="80" height="80" as="geometry" />
        </mxCell>
        <mxCell id="LCy0PVrk5LSCn90gnhkb-17" value="Git Repo" style="text;html=1;align=left;verticalAlign=middle;whiteSpace=wrap;rounded=0;" parent="1" vertex="1">
          <mxGeometry x="640" y="572.5" width="60" height="30" as="geometry" />
        </mxCell>
        <mxCell id="LCy0PVrk5LSCn90gnhkb-18" value="" style="whiteSpace=wrap;html=1;dashed=1;fillColor=#bac8d3;glass=1;opacity=50;strokeColor=#23445d;" parent="1" vertex="1">
          <mxGeometry x="635" y="572.5" width="130" height="125" as="geometry" />
        </mxCell>
        <mxCell id="LCy0PVrk5LSCn90gnhkb-19" value="Future: store results in evidence locker" style="text;html=1;align=left;verticalAlign=middle;whiteSpace=wrap;rounded=0;" parent="1" vertex="1">
          <mxGeometry x="645" y="530" width="110" height="30" as="geometry" />
        </mxCell>
        <mxCell id="M6tyFE9a1OWHZ1wvqODp-2" value="" style="image;html=1;image=img/lib/clip_art/computers/MacBook_128x128.png" parent="1" vertex="1">
          <mxGeometry x="160" y="430" width="80" height="80" as="geometry" />
        </mxCell>
        <mxCell id="M6tyFE9a1OWHZ1wvqODp-4" value="Clone &amp;amp; configure" style="text;html=1;align=left;verticalAlign=middle;whiteSpace=wrap;rounded=0;" parent="1" vertex="1">
          <mxGeometry x="260" y="440" width="90" height="30" as="geometry" />
        </mxCell>
        <mxCell id="M6tyFE9a1OWHZ1wvqODp-5" value="Compliance Posture Manager" style="text;html=1;align=center;verticalAlign=middle;whiteSpace=wrap;rounded=0;" parent="1" vertex="1">
          <mxGeometry x="100" y="410" width="140" height="30" as="geometry" />
        </mxCell>
      </root>
    </mxGraphModel>
  </diagram>
</mxfile>
